<svg width="1481" height="316" viewBox="0 0 1481 316" fill="none" xmlns="http://www.w3.org/2000/svg">
<g clip-path="url(#clip0_45_59)">
<path d="M146.27 175V149.14H133.16L133.88 144.19H148.94L152 147.64V175H146.27ZM142.85 132.46L147.8 127.78L152.72 132.46L147.8 137.17L142.85 132.46ZM172.197 175L171.507 170.68H187.287L190.227 167.29V166.18L171.867 155.35V150.73L177.147 144.19H194.937L195.627 148.51H180.567L177.627 151.9V152.98L195.927 163.84V168.46L190.647 175H172.197ZM228.514 157.06V152.77L224.674 148.54L213.694 151.18V175H207.964V144.19H212.134L213.394 147.88L226.594 143.47L234.214 151.06L234.304 156.19L228.514 157.06ZM253.571 175L243.821 164.71V154.48L253.571 144.19H270.941L271.751 148.96H255.791L249.191 155.92V163.27L255.791 170.23H271.751L270.941 175H253.571ZM305.148 175L303.948 171.22L288.588 175.69L280.368 168.91V161.86L287.808 156.85H303.528V151.93L300.378 148.66H284.298L285.018 144.19H302.988L309.108 150.64V175H305.148ZM285.528 166.9L290.568 171.22L303.528 167.83V160.75H289.878L285.528 163.6V166.9ZM334.795 175L327.265 166.06V134.08H316.615L317.305 129.1H329.785L332.845 132.55V164.32L337.615 170.05H347.245L346.555 175H334.795ZM365.702 175L355.952 164.71V154.48L364.682 144.19H378.482L383.612 149.38V156.88L379.802 160.48H361.322V163.48L368.222 170.53H382.262L381.542 175H365.702ZM361.322 156.64H376.442L378.842 154.45V150.64L376.382 148.45H367.112L361.322 155.92V156.64ZM393.579 175V130.09L399.369 129.1V147.58L412.179 143.47L421.149 151.54V165.67L411.669 175H393.579ZM399.009 170.5H409.089L415.449 163.96V153.16L410.379 148.93L399.009 151.66V170.5ZM440.116 175L430.366 164.71V154.48L439.096 144.19H452.896L458.026 149.38V156.88L454.216 160.48H435.736V163.48L442.636 170.53H456.676L455.956 175H440.116ZM435.736 156.64H450.856L453.256 154.45V150.64L450.796 148.45H441.526L435.736 155.92V156.64ZM481.403 176.05C478.343 176.05 475.853 174.01 475.853 170.62C475.853 167.2 478.343 165.25 481.403 165.25C484.493 165.25 486.953 167.2 486.953 170.62C486.953 174.01 484.493 176.05 481.403 176.05ZM514.02 175L504.27 164.71V154.48L514.02 144.19H531.39L532.2 148.96H516.24L509.64 155.92V163.27L516.24 170.23H532.2L531.39 175H514.02ZM551.227 175L541.477 164.71V154.48L551.227 144.19H568.597L569.407 148.96H553.447L546.847 155.92V163.27L553.447 170.23H569.407L568.597 175H551.227Z" fill="#CAD4E0"/>
</g>
<path d="M822.216 178V125.44H834.06V168.244H862.14L861.06 178H822.216ZM886.789 178L878.257 167.38V125.44H890.317V163.744L893.917 168.244H907.165L910.765 163.744V125.44H922.825V167.38L914.293 178H886.789ZM952.585 178L936.493 158.992V144.448L952.585 125.44H979.585L981.025 136.276H958.525L948.193 148.66V154.78L958.525 167.164H981.025L979.585 178H952.585ZM999.626 178L998.906 168.244H1013.74V135.196H998.906L999.626 125.44H1039.73L1040.45 135.196H1025.62V168.244H1040.45L1039.73 178H999.626ZM1057.14 178V125.44H1088.21L1104.05 144.052V158.596L1088.21 178H1057.14ZM1068.99 167.164H1082.2L1092.35 154.168V148.444L1082.2 136.276H1068.99V167.164ZM1118.22 178V125.44H1157L1158.08 135.196H1130.07V146.824H1152.35V156.076H1130.07V168.244H1159.16L1158.08 178H1118.22Z" fill="#0F172A"/>
<path d="M1184.92 158.668V148.912H1225.06V158.668H1184.92ZM1257.3 178L1239.92 158.992V144.448L1257.3 125.44H1271.27L1289.2 144.448V158.992L1271.88 178H1257.3ZM1251.62 154.492L1262.81 166.804H1266.34L1277.5 154.492V148.948L1266.34 136.636H1262.81L1251.62 148.948V154.492ZM1303.27 178V125.44H1343.62L1344.7 135.196H1315.11V149.344H1336.82V158.596H1315.11V178H1303.27Z" fill="#2DD3BE"/>
<defs>
<clipPath id="clip0_45_59">
<rect width="673" height="60" fill="white" transform="translate(128 128)"/>
</clipPath>
</defs>
</svg>
